<svg width="23" height="25" viewBox="0 0 23 25" fill="none" xmlns="http://www.w3.org/2000/svg">
<path d="M18.7632 0H4.23684C1.90053 0 0 1.9625 0 4.375V25L8.47368 20.625L16.9474 25V13.75H23V4.375C23 1.9625 21.0995 0 18.7632 0ZM14.5263 20.955L8.47368 17.83L2.42105 20.955V4.375C2.42105 3.34125 3.23574 2.5 4.23684 2.5H14.9524C14.6754 3.08385 14.5297 3.72483 14.5263 4.375V20.955ZM20.5789 11.25H16.9474V4.375C16.9474 3.34125 17.7621 2.5 18.7632 2.5C19.7643 2.5 20.5789 3.34125 20.5789 4.375V11.25Z" fill="#FF5722"/>
</svg>
