<svg width="15" height="17" viewBox="0 0 15 17" fill="none" xmlns="http://www.w3.org/2000/svg">
<path d="M12.2368 0.142822H2.76316C1.23947 0.142822 0 1.39882 0 2.94282V16.1428L5.52632 13.3428L11.0526 16.1428V8.94282H15V2.94282C15 1.39882 13.7605 0.142822 12.2368 0.142822ZM9.47368 13.554L5.52632 11.554L1.57895 13.554V2.94282C1.57895 2.28122 2.11026 1.74282 2.76316 1.74282H9.75158C9.57089 2.11649 9.47589 2.52671 9.47368 2.94282V13.554ZM13.4211 7.34282H11.0526V2.94282C11.0526 2.28122 11.5839 1.74282 12.2368 1.74282C12.8897 1.74282 13.4211 2.28122 13.4211 2.94282V7.34282Z" fill="white"/>
</svg>
