<svg width="20" height="20" viewBox="0 0 20 20" fill="none" xmlns="http://www.w3.org/2000/svg">
<path fill-rule="evenodd" clip-rule="evenodd" d="M14.5445 8.18112C14.5445 9.01677 14.3799 9.84424 14.0601 10.6163C13.7403 11.3883 13.2716 12.0898 12.6807 12.6807C12.0898 13.2716 11.3883 13.7403 10.6163 14.0601C9.84424 14.3799 9.01677 14.5445 8.18112 14.5445C7.34547 14.5445 6.51799 14.3799 5.74595 14.0601C4.97391 13.7403 4.27241 13.2716 3.68152 12.6807C3.09062 12.0898 2.6219 11.3883 2.30211 10.6163C1.98232 9.84424 1.81772 9.01677 1.81772 8.18112C1.81772 6.49344 2.48815 4.87489 3.68152 3.68152C4.87489 2.48815 6.49344 1.81772 8.18112 1.81772C9.8688 1.81772 11.4873 2.48815 12.6807 3.68152C13.8741 4.87489 14.5445 6.49344 14.5445 8.18112ZM13.2882 14.5736C11.6545 15.8788 9.583 16.5089 7.49921 16.3345C5.41541 16.1601 3.47748 15.1945 2.08342 13.6359C0.689357 12.0773 -0.0550177 10.0441 0.00317155 7.95384C0.0613608 5.86357 0.917698 3.87493 2.39631 2.39631C3.87493 0.917698 5.86357 0.0613608 7.95384 0.00317155C10.0441 -0.0550177 12.0773 0.689357 13.6359 2.08342C15.1945 3.47748 16.1601 5.41541 16.3345 7.49921C16.5089 9.583 15.8788 11.6545 14.5736 13.2882L19.7334 18.4462C19.8179 18.5307 19.885 18.631 19.9307 18.7415C19.9765 18.8519 20 18.9703 20 19.0898C20 19.2093 19.9765 19.3277 19.9307 19.4381C19.885 19.5485 19.8179 19.6489 19.7334 19.7334C19.6489 19.8179 19.5485 19.885 19.4381 19.9307C19.3277 19.9765 19.2093 20 19.0898 20C18.9703 20 18.8519 19.9765 18.7415 19.9307C18.631 19.885 18.5307 19.8179 18.4462 19.7334L13.29 14.5736H13.2882Z" fill="#FFCCBC"/>
</svg>
